{
  "asset": {
    "generator": "Khronos glTF Blender I/O v4.4.56",
    "version": "2.0"
  },
  "extensionsUsed": [
    "KHR_texture_transform",
    "KHR_materials_specular",
    "KHR_materials_sheen"
  ],
  "extensionsRequired": [
    "KHR_texture_transform"
  ],
  "scene": 0,
  "scenes": [
    {
      "name": "Scene",
      "nodes": [
        0
      ]
    }
  ],
  "nodes": [
    {
      "mesh": 0,
      "name": "sphere_gltf"
    }
  ],
  "materials": [
    {
      "doubleSided": true,
      "extensions": {
        "KHR_materials_specular": {
          "specularTexture": {
            "extensions": {
              "KHR_texture_transform": {
                "scale": [
                  0.9934608936309814,
                  1
                ]
              }
            },
            "index": 0
          }
        },
        "KHR_materials_sheen": {
          "sheenColorFactor": [
            0.855177640914917,
            0.4881371557712555,
            0.2619703710079193
          ],
          "sheenRoughnessFactor": 0.5
        }
      },
      "name": "polar_fleece",
      "normalTexture": {
        "extensions": {
          "KHR_texture_transform": {
            "scale": [
              0.9934608936309814,
              1
            ]
          }
        },
        "index": 1
      },
      "pbrMetallicRoughness": {
        "baseColorTexture": {
          "extensions": {
            "KHR_texture_transform": {
              "scale": [
                0.9934608936309814,
                1
              ]
            }
          },
          "index": 2
        },
        "metallicRoughnessTexture": {
          "extensions": {
            "KHR_texture_transform": {
              "scale": [
                0.9934608936309814,
                1
              ]
            }
          },
          "index": 3
        }
      }
    }
  ],
  "meshes": [
    {
      "name": "Sphere.001",
      "primitives": [
        {
          "attributes": {
            "POSITION": 0,
            "NORMAL": 1,
            "TEXCOORD_0": 2
          },
          "indices": 3,
          "material": 0
        }
      ]
    }
  ],
  "textures": [
    {
      "sampler": 0,
      "source": 0
    },
    {
      "sampler": 0,
      "source": 1
    },
    {
      "sampler": 0,
      "source": 2
    },
    {
      "sampler": 0,
      "source": 3
    }
  ],
  "images": [
    {
      "mimeType": "image/jpeg",
      "name": "polar_fleece_spec_ior",
      "uri": "textures/polar_fleece_spec_ior_1k.jpg"
    },
    {
      "mimeType": "image/jpeg",
      "name": "polar_fleece_nor_gl",
      "uri": "textures/polar_fleece_nor_gl_1k.jpg"
    },
    {
      "mimeType": "image/jpeg",
      "name": "polar_fleece_diff",
      "uri": "textures/polar_fleece_diff_1k.jpg"
    },
    {
      "mimeType": "image/jpeg",
      "name": "polar_fleece_metal-polar_fleece_rough",
      "uri": "textures/polar_fleece_arm_1k.jpg"
    }
  ],
  "accessors": [
    {
      "bufferView": 0,
      "componentType": 5126,
      "count": 53891,
      "max": [
        0.13593018054962158,
        0.13623087108135223,
        0.13602156937122345
      ],
      "min": [
        -0.13593022525310516,
        -0.13588909804821014,
        -0.13602030277252197
      ],
      "type": "VEC3"
    },
    {
      "bufferView": 1,
      "componentType": 5126,
      "count": 53891,
      "type": "VEC3"
    },
    {
      "bufferView": 2,
      "componentType": 5126,
      "count": 53891,
      "type": "VEC2"
    },
    {
      "bufferView": 3,
      "componentType": 5123,
      "count": 322170,
      "type": "SCALAR"
    }
  ],
  "bufferViews": [
    {
      "buffer": 0,
      "byteLength": 646692,
      "byteOffset": 0,
      "target": 34962
    },
    {
      "buffer": 0,
      "byteLength": 646692,
      "byteOffset": 646692,
      "target": 34962
    },
    {
      "buffer": 0,
      "byteLength": 431128,
      "byteOffset": 1293384,
      "target": 34962
    },
    {
      "buffer": 0,
      "byteLength": 644340,
      "byteOffset": 1724512,
      "target": 34963
    }
  ],
  "samplers": [
    {
      "magFilter": 9729,
      "minFilter": 9987
    }
  ],
  "buffers": [
    {
      "byteLength": 2368852,
      "uri": "polar_fleece.bin"
    }
  ]
}