<?xml version="1.0" encoding="UTF-8" standalone="no"?>
<!-- Created with Inkscape (http://www.inkscape.org/) -->

<svg
   width="32"
   height="32"
   viewBox="0 0 8.4666665 8.4666665"
   version="1.1"
   id="svg1"
   sodipodi:docname="Heart.svg"
   inkscape:version="1.4.3 (0d15f75042, 2025-12-25)"
   xmlns:inkscape="http://www.inkscape.org/namespaces/inkscape"
   xmlns:sodipodi="http://sodipodi.sourceforge.net/DTD/sodipodi-0.dtd"
   xmlns="http://www.w3.org/2000/svg"
   xmlns:svg="http://www.w3.org/2000/svg"
   xmlns:rdf="http://www.w3.org/1999/02/22-rdf-syntax-ns#"
   xmlns:cc="http://creativecommons.org/ns#"
   xmlns:dc="http://purl.org/dc/elements/1.1/">
  <defs
     id="defs1" />
  <sodipodi:namedview
     id="base"
     pagecolor="#ffffff"
     bordercolor="#000000"
     borderopacity="0.3"
     inkscape:pageopacity="0.0"
     inkscape:pageshadow="2"
     inkscape:zoom="8.28125"
     inkscape:cx="23.54717"
     inkscape:cy="36.467925"
     inkscape:document-units="px"
     inkscape:showpageshadow="2"
     inkscape:pagecheckerboard="0"
     inkscape:deskcolor="#d1d1d1"
     showgrid="true"
     inkscape:window-width="1920"
     inkscape:window-height="1011"
     inkscape:window-x="0"
     inkscape:window-y="32"
     inkscape:window-maximized="1"
     inkscape:current-layer="svg1">
    <inkscape:grid
       id="grid1"
       units="px"
       originx="0"
       originy="0"
       spacingx="0.52916666"
       spacingy="0.52916666"
       empcolor="#0099e5"
       empopacity="0.30196078"
       color="#0099e5"
       opacity="0.14901961"
       empspacing="8"
       enabled="true"
       visible="true" />
  </sodipodi:namedview>
  <metadata
     id="metadata1">
    <rdf:RDF>
      <cc:Work
         rdf:about="">
        <dc:format>image/svg+xml</dc:format>
        <dc:type
           rdf:resource="http://purl.org/dc/dcmitype/StillImage" />
      </cc:Work>
    </rdf:RDF>
  </metadata>
  <path
     style="fill:#710028;fill-opacity:1;stroke:none;stroke-width:0.137734;stroke-opacity:1"
     d="M 4.365625,7.6729168 C 1.0583333,4.3689502 1.0583333,3.2676279 1.0583333,2.1663058 c 0,-1.1013221 2.2048611,-2.20264423 3.3072916,0 1.1024303,-2.20264423 3.3072919,-1.1013221 3.3072919,0 0,1.1013221 0,2.2026444 -3.3072918,5.506611 z"
     id="path1-9"
     sodipodi:nodetypes="czczc" />
  <path
     style="fill:#e16a94;fill-opacity:1;stroke:none;stroke-width:0.132291;stroke-opacity:1"
     d="m 4.2333333,7.4083332 c -3.175,-3.1749999 -3.175,-4.2333334 -3.175,-5.2916666 0,-1.0583333 2.1166667,-2.1166666 3.1749999,0 1.0583335,-2.1166666 3.175,-1.0583333 3.175,0 0,1.0583332 0,2.1166667 -3.1749999,5.2916666 z"
     id="path1"
     sodipodi:nodetypes="czczc" />
  <path
     style="fill:#c94070;fill-opacity:1;stroke:none;stroke-width:0.127868;stroke-opacity:1"
     d="M 4.3656249,7.4083332 C 1.3229166,4.3131379 1.3229166,3.2814061 1.3229166,2.2496744 c 0,-1.0317316 2.0284722,-2.06346337 3.0427082,10e-8 1.0142364,-2.06346347 3.0427084,-1.0317317 3.0427084,-10e-8 0,1.0317317 0,2.0634635 -3.0427083,5.1586588 z"
     id="path1-70"
     sodipodi:nodetypes="czczc" />
</svg>
